<svg xmlns="http://www.w3.org/2000/svg" xmlns:xlink="http://www.w3.org/1999/xlink" width="500" zoomAndPan="magnify" viewBox="0 0 375 374.999991" height="500" preserveAspectRatio="xMidYMid meet" version="1.0"><defs><g/><clipPath id="8c2384f9d1"><path d="M 56.25 29 L 280 29 L 280 287.984375 L 56.25 287.984375 Z M 56.25 29 " clip-rule="nonzero"/></clipPath><clipPath id="f3db42365d"><path d="M 95 25.484375 L 318.75 25.484375 L 318.75 287.984375 L 95 287.984375 Z M 95 25.484375 " clip-rule="nonzero"/></clipPath></defs><g clip-path="url(#8c2384f9d1)"><path fill="#ffffff" d="M 235.371094 175.546875 L 272.027344 119.46875 L 272.027344 204.542969 L 279.277344 204.542969 L 279.277344 108.800781 L 270.25 108.800781 L 234.003906 164.605469 L 197.347656 108.800781 C 193.792969 108.800781 192.152344 108.800781 188.597656 108.800781 L 188.597656 281.136719 C 188.234375 281.140625 187.871094 281.15625 187.503906 281.15625 C 118.902344 281.15625 63.089844 225.34375 63.089844 156.738281 C 63.089844 98.925781 102.726562 50.199219 156.253906 36.300781 L 156.253906 29.273438 C 98.921875 43.332031 56.25 95.136719 56.25 156.738281 C 56.25 229.117188 115.132812 288 187.503906 288 C 190.355469 288 193.171875 287.875 195.976562 287.699219 L 195.976562 282.113281 L 195.980469 282.113281 L 195.980469 119.46875 L 232.914062 175.546875 Z M 235.371094 175.546875 " fill-opacity="1" fill-rule="nonzero"/></g><g clip-path="url(#f3db42365d)"><path fill="#000000" d="M 187.503906 25.484375 C 179.160156 25.484375 171.007812 26.300781 163.09375 27.796875 L 163.09375 115.757812 C 154.980469 108.730469 145.515625 107.445312 134.984375 107.445312 C 119.253906 107.445312 98.203125 113.726562 98.605469 133.96875 C 98.605469 151.609375 116.523438 155.175781 134.039062 158.589844 C 149.753906 161.597656 165.625 164.746094 165.484375 179.097656 C 165.484375 196.070312 146.742188 199.339844 134.984375 199.339844 C 123.226562 199.339844 108.175781 193.601562 102.296875 181.984375 L 95.734375 185.257812 C 103.117188 199.902344 120.074219 206.050781 134.984375 206.050781 C 150.996094 206.050781 172.742188 200.855469 172.867188 179.242188 C 172.867188 158.59375 153.726562 155.308594 135.257812 151.753906 C 119.105469 148.746094 105.988281 145.875 105.988281 133.695312 C 105.988281 118.378906 123.765625 114.273438 134.984375 114.273438 C 145.347656 114.414062 156.097656 115.914062 163.09375 125.9375 C 163.390625 126.355469 163.683594 126.808594 163.980469 127.273438 L 169.921875 123.765625 L 169.996094 123.714844 C 169.964844 123.683594 169.949219 123.640625 169.921875 123.609375 L 169.921875 33.59375 C 175.667969 32.769531 181.539062 32.320312 187.503906 32.320312 C 256.109375 32.320312 311.921875 88.136719 311.921875 156.738281 C 311.921875 220.160156 264.21875 272.609375 202.8125 280.183594 L 202.8125 287.074219 C 268 279.464844 318.761719 223.9375 318.761719 156.738281 C 318.765625 84.367188 259.882812 25.484375 187.503906 25.484375 Z M 187.503906 25.484375 " fill-opacity="1" fill-rule="nonzero"/></g><g fill="#000000" fill-opacity="1"><g transform="translate(90.926501, 342.826852)"><g><path d="M 1.359375 -2.75 C 0.898438 -3.3125 0.671875 -3.816406 0.671875 -4.265625 C 0.671875 -4.722656 1.050781 -5.328125 1.8125 -6.078125 C 2.257812 -6.503906 2.726562 -6.71875 3.21875 -6.71875 C 3.71875 -6.71875 4.410156 -6.269531 5.296875 -5.375 C 5.546875 -5.070312 5.898438 -4.785156 6.359375 -4.515625 C 6.828125 -4.242188 7.253906 -4.109375 7.640625 -4.109375 C 9.296875 -4.109375 10.125 -4.78125 10.125 -6.125 C 10.125 -6.53125 9.894531 -6.867188 9.4375 -7.140625 C 8.988281 -7.421875 8.425781 -7.625 7.75 -7.75 C 7.070312 -7.875 6.34375 -8.070312 5.5625 -8.34375 C 4.78125 -8.625 4.050781 -8.953125 3.375 -9.328125 C 2.707031 -9.703125 2.144531 -10.289062 1.6875 -11.09375 C 1.238281 -11.90625 1.015625 -12.878906 1.015625 -14.015625 C 1.015625 -15.578125 1.59375 -16.9375 2.75 -18.09375 C 3.914062 -19.257812 5.503906 -19.84375 7.515625 -19.84375 C 8.578125 -19.84375 9.546875 -19.703125 10.421875 -19.421875 C 11.304688 -19.148438 11.914062 -18.875 12.25 -18.59375 L 12.921875 -18.09375 C 13.472656 -17.570312 13.75 -17.132812 13.75 -16.78125 C 13.75 -16.425781 13.535156 -15.9375 13.109375 -15.3125 C 12.503906 -14.425781 11.882812 -13.984375 11.25 -13.984375 C 10.875 -13.984375 10.410156 -14.160156 9.859375 -14.515625 C 9.804688 -14.554688 9.703125 -14.644531 9.546875 -14.78125 C 9.398438 -14.925781 9.265625 -15.039062 9.140625 -15.125 C 8.765625 -15.363281 8.285156 -15.484375 7.703125 -15.484375 C 7.128906 -15.484375 6.648438 -15.34375 6.265625 -15.0625 C 5.890625 -14.789062 5.703125 -14.410156 5.703125 -13.921875 C 5.703125 -13.429688 5.925781 -13.035156 6.375 -12.734375 C 6.832031 -12.429688 7.394531 -12.226562 8.0625 -12.125 C 8.738281 -12.019531 9.476562 -11.851562 10.28125 -11.625 C 11.082031 -11.40625 11.816406 -11.132812 12.484375 -10.8125 C 13.160156 -10.5 13.722656 -9.945312 14.171875 -9.15625 C 14.628906 -8.363281 14.859375 -7.390625 14.859375 -6.234375 C 14.859375 -5.078125 14.628906 -4.054688 14.171875 -3.171875 C 13.710938 -2.296875 13.109375 -1.617188 12.359375 -1.140625 C 10.921875 -0.203125 9.382812 0.265625 7.75 0.265625 C 6.914062 0.265625 6.125 0.164062 5.375 -0.03125 C 4.632812 -0.238281 4.03125 -0.492188 3.5625 -0.796875 C 2.625 -1.367188 1.96875 -1.921875 1.59375 -2.453125 Z M 1.359375 -2.75 "/></g></g></g><g fill="#000000" fill-opacity="1"><g transform="translate(107.601349, 342.826852)"><g><path d="M 12.328125 -18.140625 L 19.53125 -3.28125 C 19.832031 -2.675781 19.984375 -2.222656 19.984375 -1.921875 C 19.984375 -1.273438 19.46875 -0.695312 18.4375 -0.1875 C 17.832031 0.113281 17.351562 0.265625 17 0.265625 C 16.65625 0.265625 16.375 0.179688 16.15625 0.015625 C 15.9375 -0.140625 15.773438 -0.304688 15.671875 -0.484375 C 15.578125 -0.660156 15.441406 -0.925781 15.265625 -1.28125 L 13.875 -4.15625 L 6.5 -4.15625 L 5.109375 -1.28125 C 4.929688 -0.925781 4.796875 -0.664062 4.703125 -0.5 C 4.609375 -0.34375 4.445312 -0.179688 4.21875 -0.015625 C 4 0.148438 3.710938 0.234375 3.359375 0.234375 C 3.015625 0.234375 2.539062 0.0820312 1.9375 -0.21875 C 0.914062 -0.707031 0.40625 -1.273438 0.40625 -1.921875 C 0.40625 -2.222656 0.554688 -2.675781 0.859375 -3.28125 L 8.046875 -18.171875 C 8.242188 -18.578125 8.539062 -18.90625 8.9375 -19.15625 C 9.332031 -19.40625 9.753906 -19.53125 10.203125 -19.53125 C 11.160156 -19.53125 11.867188 -19.066406 12.328125 -18.140625 Z M 10.171875 -11.75 L 8.421875 -8.09375 L 11.96875 -8.09375 Z M 10.171875 -11.75 "/></g></g></g><g fill="#000000" fill-opacity="1"><g transform="translate(129.124064, 342.826852)"><g><path d="M 21.8125 -18.78125 C 21.957031 -18.507812 22.039062 -18.269531 22.0625 -18.0625 C 22.09375 -17.851562 22.109375 -17.539062 22.109375 -17.125 L 22.109375 -2.34375 C 22.109375 -1.113281 21.769531 -0.394531 21.09375 -0.1875 C 20.757812 -0.0820312 20.332031 -0.03125 19.8125 -0.03125 C 19.300781 -0.03125 18.894531 -0.0703125 18.59375 -0.15625 C 18.289062 -0.25 18.054688 -0.359375 17.890625 -0.484375 C 17.734375 -0.609375 17.613281 -0.785156 17.53125 -1.015625 C 17.4375 -1.316406 17.390625 -1.773438 17.390625 -2.390625 L 17.390625 -11.328125 C 16.953125 -10.773438 16.304688 -9.898438 15.453125 -8.703125 C 14.597656 -7.503906 14.054688 -6.753906 13.828125 -6.453125 C 13.597656 -6.148438 13.4375 -5.9375 13.34375 -5.8125 C 13.257812 -5.695312 13.039062 -5.535156 12.6875 -5.328125 C 12.34375 -5.128906 11.96875 -5.03125 11.5625 -5.03125 C 11.164062 -5.03125 10.800781 -5.125 10.46875 -5.3125 C 10.144531 -5.5 9.914062 -5.679688 9.78125 -5.859375 L 9.5625 -6.15625 C 9.207031 -6.59375 8.503906 -7.535156 7.453125 -8.984375 C 6.410156 -10.429688 5.84375 -11.210938 5.75 -11.328125 L 5.75 -2.34375 C 5.75 -1.9375 5.734375 -1.628906 5.703125 -1.421875 C 5.679688 -1.222656 5.601562 -1 5.46875 -0.75 C 5.195312 -0.269531 4.503906 -0.03125 3.390625 -0.03125 C 2.304688 -0.03125 1.628906 -0.269531 1.359375 -0.75 C 1.210938 -1 1.125 -1.226562 1.09375 -1.4375 C 1.070312 -1.65625 1.0625 -1.972656 1.0625 -2.390625 L 1.0625 -17.1875 C 1.0625 -17.59375 1.070312 -17.894531 1.09375 -18.09375 C 1.125 -18.300781 1.210938 -18.539062 1.359375 -18.8125 C 1.628906 -19.269531 2.320312 -19.5 3.4375 -19.5 C 3.914062 -19.5 4.328125 -19.441406 4.671875 -19.328125 C 5.015625 -19.210938 5.242188 -19.09375 5.359375 -18.96875 L 5.515625 -18.8125 L 11.5625 -10.875 C 14.582031 -14.863281 16.597656 -17.5 17.609375 -18.78125 C 17.910156 -19.257812 18.625 -19.5 19.75 -19.5 C 20.882812 -19.5 21.570312 -19.257812 21.8125 -18.78125 Z M 21.8125 -18.78125 "/></g></g></g><g fill="#000000" fill-opacity="1"><g transform="translate(153.443636, 342.826852)"><g><path d="M 12.328125 -18.140625 L 19.53125 -3.28125 C 19.832031 -2.675781 19.984375 -2.222656 19.984375 -1.921875 C 19.984375 -1.273438 19.46875 -0.695312 18.4375 -0.1875 C 17.832031 0.113281 17.351562 0.265625 17 0.265625 C 16.65625 0.265625 16.375 0.179688 16.15625 0.015625 C 15.9375 -0.140625 15.773438 -0.304688 15.671875 -0.484375 C 15.578125 -0.660156 15.441406 -0.925781 15.265625 -1.28125 L 13.875 -4.15625 L 6.5 -4.15625 L 5.109375 -1.28125 C 4.929688 -0.925781 4.796875 -0.664062 4.703125 -0.5 C 4.609375 -0.34375 4.445312 -0.179688 4.21875 -0.015625 C 4 0.148438 3.710938 0.234375 3.359375 0.234375 C 3.015625 0.234375 2.539062 0.0820312 1.9375 -0.21875 C 0.914062 -0.707031 0.40625 -1.273438 0.40625 -1.921875 C 0.40625 -2.222656 0.554688 -2.675781 0.859375 -3.28125 L 8.046875 -18.171875 C 8.242188 -18.578125 8.539062 -18.90625 8.9375 -19.15625 C 9.332031 -19.40625 9.753906 -19.53125 10.203125 -19.53125 C 11.160156 -19.53125 11.867188 -19.066406 12.328125 -18.140625 Z M 10.171875 -11.75 L 8.421875 -8.09375 L 11.96875 -8.09375 Z M 10.171875 -11.75 "/></g></g></g><g fill="#000000" fill-opacity="1"><g transform="translate(174.966349, 342.826852)"><g><path d="M 16.015625 -3.296875 C 16.273438 -2.660156 16.40625 -2.203125 16.40625 -1.921875 C 16.40625 -1.242188 15.859375 -0.675781 14.765625 -0.21875 C 14.191406 0.03125 13.734375 0.15625 13.390625 0.15625 C 13.046875 0.15625 12.757812 0.0703125 12.53125 -0.09375 C 12.3125 -0.257812 12.148438 -0.429688 12.046875 -0.609375 C 11.867188 -0.953125 11.175781 -2.5625 9.96875 -5.4375 L 9.140625 -5.375 L 5.78125 -5.375 L 5.78125 -2.375 C 5.78125 -1.96875 5.765625 -1.660156 5.734375 -1.453125 C 5.710938 -1.242188 5.628906 -1.007812 5.484375 -0.75 C 5.234375 -0.269531 4.539062 -0.03125 3.40625 -0.03125 C 2.164062 -0.03125 1.4375 -0.359375 1.21875 -1.015625 C 1.113281 -1.316406 1.0625 -1.773438 1.0625 -2.390625 L 1.0625 -17.1875 C 1.0625 -17.59375 1.070312 -17.894531 1.09375 -18.09375 C 1.125 -18.300781 1.210938 -18.539062 1.359375 -18.8125 C 1.609375 -19.289062 2.300781 -19.53125 3.4375 -19.53125 L 9.1875 -19.53125 C 10.75 -19.53125 12.269531 -18.960938 13.75 -17.828125 C 14.457031 -17.273438 15.039062 -16.523438 15.5 -15.578125 C 15.96875 -14.640625 16.203125 -13.59375 16.203125 -12.4375 C 16.203125 -10.4375 15.535156 -8.785156 14.203125 -7.484375 C 14.585938 -6.546875 15.191406 -5.148438 16.015625 -3.296875 Z M 5.78125 -10.09375 L 9.1875 -10.09375 C 9.707031 -10.09375 10.222656 -10.285156 10.734375 -10.671875 C 11.253906 -11.066406 11.515625 -11.65625 11.515625 -12.4375 C 11.515625 -13.21875 11.253906 -13.804688 10.734375 -14.203125 C 10.222656 -14.609375 9.691406 -14.8125 9.140625 -14.8125 L 5.78125 -14.8125 Z M 5.78125 -10.09375 "/></g></g></g><g fill="#ffffff" fill-opacity="1"><g transform="translate(192.914775, 342.826852)"><g/></g></g><g fill="#ffffff" fill-opacity="1"><g transform="translate(200.79952, 342.826852)"><g><path d="M 21.8125 -18.78125 C 21.957031 -18.507812 22.039062 -18.269531 22.0625 -18.0625 C 22.09375 -17.851562 22.109375 -17.539062 22.109375 -17.125 L 22.109375 -2.34375 C 22.109375 -1.113281 21.769531 -0.394531 21.09375 -0.1875 C 20.757812 -0.0820312 20.332031 -0.03125 19.8125 -0.03125 C 19.300781 -0.03125 18.894531 -0.0703125 18.59375 -0.15625 C 18.289062 -0.25 18.054688 -0.359375 17.890625 -0.484375 C 17.734375 -0.609375 17.613281 -0.785156 17.53125 -1.015625 C 17.4375 -1.316406 17.390625 -1.773438 17.390625 -2.390625 L 17.390625 -11.328125 C 16.953125 -10.773438 16.304688 -9.898438 15.453125 -8.703125 C 14.597656 -7.503906 14.054688 -6.753906 13.828125 -6.453125 C 13.597656 -6.148438 13.4375 -5.9375 13.34375 -5.8125 C 13.257812 -5.695312 13.039062 -5.535156 12.6875 -5.328125 C 12.34375 -5.128906 11.96875 -5.03125 11.5625 -5.03125 C 11.164062 -5.03125 10.800781 -5.125 10.46875 -5.3125 C 10.144531 -5.5 9.914062 -5.679688 9.78125 -5.859375 L 9.5625 -6.15625 C 9.207031 -6.59375 8.503906 -7.535156 7.453125 -8.984375 C 6.410156 -10.429688 5.84375 -11.210938 5.75 -11.328125 L 5.75 -2.34375 C 5.75 -1.9375 5.734375 -1.628906 5.703125 -1.421875 C 5.679688 -1.222656 5.601562 -1 5.46875 -0.75 C 5.195312 -0.269531 4.503906 -0.03125 3.390625 -0.03125 C 2.304688 -0.03125 1.628906 -0.269531 1.359375 -0.75 C 1.210938 -1 1.125 -1.226562 1.09375 -1.4375 C 1.070312 -1.65625 1.0625 -1.972656 1.0625 -2.390625 L 1.0625 -17.1875 C 1.0625 -17.59375 1.070312 -17.894531 1.09375 -18.09375 C 1.125 -18.300781 1.210938 -18.539062 1.359375 -18.8125 C 1.628906 -19.269531 2.320312 -19.5 3.4375 -19.5 C 3.914062 -19.5 4.328125 -19.441406 4.671875 -19.328125 C 5.015625 -19.210938 5.242188 -19.09375 5.359375 -18.96875 L 5.515625 -18.8125 L 11.5625 -10.875 C 14.582031 -14.863281 16.597656 -17.5 17.609375 -18.78125 C 17.910156 -19.257812 18.625 -19.5 19.75 -19.5 C 20.882812 -19.5 21.570312 -19.257812 21.8125 -18.78125 Z M 21.8125 -18.78125 "/></g></g></g><g fill="#ffffff" fill-opacity="1"><g transform="translate(225.119089, 342.826852)"><g><path d="M 12.328125 -18.140625 L 19.53125 -3.28125 C 19.832031 -2.675781 19.984375 -2.222656 19.984375 -1.921875 C 19.984375 -1.273438 19.46875 -0.695312 18.4375 -0.1875 C 17.832031 0.113281 17.351562 0.265625 17 0.265625 C 16.65625 0.265625 16.375 0.179688 16.15625 0.015625 C 15.9375 -0.140625 15.773438 -0.304688 15.671875 -0.484375 C 15.578125 -0.660156 15.441406 -0.925781 15.265625 -1.28125 L 13.875 -4.15625 L 6.5 -4.15625 L 5.109375 -1.28125 C 4.929688 -0.925781 4.796875 -0.664062 4.703125 -0.5 C 4.609375 -0.34375 4.445312 -0.179688 4.21875 -0.015625 C 4 0.148438 3.710938 0.234375 3.359375 0.234375 C 3.015625 0.234375 2.539062 0.0820312 1.9375 -0.21875 C 0.914062 -0.707031 0.40625 -1.273438 0.40625 -1.921875 C 0.40625 -2.222656 0.554688 -2.675781 0.859375 -3.28125 L 8.046875 -18.171875 C 8.242188 -18.578125 8.539062 -18.90625 8.9375 -19.15625 C 9.332031 -19.40625 9.753906 -19.53125 10.203125 -19.53125 C 11.160156 -19.53125 11.867188 -19.066406 12.328125 -18.140625 Z M 10.171875 -11.75 L 8.421875 -8.09375 L 11.96875 -8.09375 Z M 10.171875 -11.75 "/></g></g></g><g fill="#ffffff" fill-opacity="1"><g transform="translate(246.641802, 342.826852)"><g><path d="M 16.015625 -3.296875 C 16.273438 -2.660156 16.40625 -2.203125 16.40625 -1.921875 C 16.40625 -1.242188 15.859375 -0.675781 14.765625 -0.21875 C 14.191406 0.03125 13.734375 0.15625 13.390625 0.15625 C 13.046875 0.15625 12.757812 0.0703125 12.53125 -0.09375 C 12.3125 -0.257812 12.148438 -0.429688 12.046875 -0.609375 C 11.867188 -0.953125 11.175781 -2.5625 9.96875 -5.4375 L 9.140625 -5.375 L 5.78125 -5.375 L 5.78125 -2.375 C 5.78125 -1.96875 5.765625 -1.660156 5.734375 -1.453125 C 5.710938 -1.242188 5.628906 -1.007812 5.484375 -0.75 C 5.234375 -0.269531 4.539062 -0.03125 3.40625 -0.03125 C 2.164062 -0.03125 1.4375 -0.359375 1.21875 -1.015625 C 1.113281 -1.316406 1.0625 -1.773438 1.0625 -2.390625 L 1.0625 -17.1875 C 1.0625 -17.59375 1.070312 -17.894531 1.09375 -18.09375 C 1.125 -18.300781 1.210938 -18.539062 1.359375 -18.8125 C 1.609375 -19.289062 2.300781 -19.53125 3.4375 -19.53125 L 9.1875 -19.53125 C 10.75 -19.53125 12.269531 -18.960938 13.75 -17.828125 C 14.457031 -17.273438 15.039062 -16.523438 15.5 -15.578125 C 15.96875 -14.640625 16.203125 -13.59375 16.203125 -12.4375 C 16.203125 -10.4375 15.535156 -8.785156 14.203125 -7.484375 C 14.585938 -6.546875 15.191406 -5.148438 16.015625 -3.296875 Z M 5.78125 -10.09375 L 9.1875 -10.09375 C 9.707031 -10.09375 10.222656 -10.285156 10.734375 -10.671875 C 11.253906 -11.066406 11.515625 -11.65625 11.515625 -12.4375 C 11.515625 -13.21875 11.253906 -13.804688 10.734375 -14.203125 C 10.222656 -14.609375 9.691406 -14.8125 9.140625 -14.8125 L 5.78125 -14.8125 Z M 5.78125 -10.09375 "/></g></g></g><g fill="#ffffff" fill-opacity="1"><g transform="translate(264.595207, 342.826852)"><g><path d="M 2.34375 -19.546875 L 17.15625 -19.546875 C 17.726562 -19.546875 18.144531 -19.476562 18.40625 -19.34375 C 18.675781 -19.21875 18.851562 -19.007812 18.9375 -18.71875 C 19.03125 -18.4375 19.078125 -18.066406 19.078125 -17.609375 C 19.078125 -17.148438 19.03125 -16.78125 18.9375 -16.5 C 18.851562 -16.226562 18.703125 -16.039062 18.484375 -15.9375 C 18.171875 -15.769531 17.71875 -15.6875 17.125 -15.6875 L 12.046875 -15.6875 L 12.046875 -2.296875 C 12.046875 -1.878906 12.03125 -1.570312 12 -1.375 C 11.976562 -1.1875 11.898438 -0.960938 11.765625 -0.703125 C 11.628906 -0.441406 11.390625 -0.257812 11.046875 -0.15625 C 10.710938 -0.0507812 10.269531 0 9.71875 0 C 9.164062 0 8.722656 -0.0507812 8.390625 -0.15625 C 8.066406 -0.257812 7.835938 -0.441406 7.703125 -0.703125 C 7.578125 -0.960938 7.5 -1.191406 7.46875 -1.390625 C 7.445312 -1.597656 7.4375 -1.90625 7.4375 -2.3125 L 7.4375 -15.6875 L 2.3125 -15.6875 C 1.75 -15.6875 1.332031 -15.753906 1.0625 -15.890625 C 0.800781 -16.023438 0.625 -16.234375 0.53125 -16.515625 C 0.445312 -16.796875 0.40625 -17.164062 0.40625 -17.625 C 0.40625 -18.09375 0.445312 -18.460938 0.53125 -18.734375 C 0.625 -19.015625 0.773438 -19.207031 0.984375 -19.3125 C 1.304688 -19.46875 1.757812 -19.546875 2.34375 -19.546875 Z M 2.34375 -19.546875 "/></g></g></g></svg>